<svg xmlns="http://www.w3.org/2000/svg" xmlns:xlink="http://www.w3.org/1999/xlink" viewBox="0 0 1079.34 253.5"><defs><style>.cls-1{fill:#39454e;}.cls-2{fill:url(#名称未設定グラデーション_9);}</style><linearGradient id="名称未設定グラデーション_9" x1="35.5" y1="122.31" x2="222.51" y2="122.31" gradientUnits="userSpaceOnUse"><stop offset="0" stop-color="#088e84"/><stop offset="1" stop-color="#0b748d"/></linearGradient></defs><g id="レイヤー_6" data-name="レイヤー 6"><path class="cls-1" d="M253.29,45.73h21.94c7.64,0,11.93,3.81,11.93,11.93,0,6-2.28,8.59-6.15,9.51,4.7.89,7.36,3.76,7.36,10.71v.5c0,8.14-4.55,11.94-11.94,11.94H253.29Zm18.23,19.18c4,0,5.28-.2,6.55-.93,1.68-.94,2.55-2.58,2.55-6.12,0-4-1.5-6.48-5.86-6.48H259.82V64.91ZM276,84.67c4.82,0,5.76-3,5.86-6.26v-.82c0-4.07-.95-5.72-2.82-6.66-1.33-.6-2-.37-7.36-.37H259.82V84.67Z"/><path class="cls-1" d="M336.93,90.32h-6.58l.22-39.18h.86l-12.61,30.2h-5.29L300.76,51.41l.89.07.23,38.91-6.57-.07V45.73h9.3L316,73.49h.16l11.29-27.76h9.47Z"/><path class="cls-1" d="M432.9,51.43s-17.25-.09-20.41-.09c-4.7,0-5.86,3.11-5.86,6.3,0,.34,0,1.11,0,1.43,0,4,1.81,6.29,5.84,6.29h10c9.32,0,11.94,5.86,11.94,11.94v1.15c0,7.51-3.93,11.93-12,11.93H402V84.71H422c4.27,0,5.86-2.45,5.86-6.23v-1.2c0-3.34-1.26-6.3-5.86-6.3H412c-8.31,0-11.94-4.57-11.94-11.94V57.66c0-6.07,2.68-11.93,11.94-11.93l20.86.06Z"/><path class="cls-1" d="M377.57,51.43s-17.25-.09-20.41-.09c-4.71,0-5.87,3.11-5.87,6.3,0,.34,0,1.11,0,1.43,0,4,1.81,6.29,5.85,6.29h10c9.33,0,11.94,5.86,11.94,11.94v1.15c0,7.51-3.93,11.93-12,11.93H346.65V84.71h20c4.27,0,5.86-2.45,5.86-6.23v-1.2c0-3.34-1.27-6.3-5.87-6.3h-10c-8.3,0-11.93-4.57-11.93-11.94V57.66c0-6.07,2.67-11.93,11.93-11.93l20.87.06Z"/><path class="cls-1" d="M449.21,65.25h21.15v5.62H449.21v14h24.73v5.65H442.67V45.91h31.14v5.65H449.2Z"/><path class="cls-1" d="M490.6,80.53l-3.42,10h-7l15.58-44.6h9.61l15.77,44.6h-6.91l-3.49-10Zm10-29.27-8.29,24.09H509Z"/><path class="cls-1" d="M527.53,46.05h21.91c9,0,11.94,5.39,11.94,11.93v1.29c0,5-2.5,9.76-7.89,10.65h0c4.88.27,7.42,3.28,7.35,8.62v12h-6.59v-9c.13-5.28-2.24-9.19-7.58-9H534.08v18l-6.55.13Zm21,20.79c4.43,0,6.34-2.85,6.34-6.3V58c0-4.15-1.9-6.26-5.86-6.26h-14.9V66.84Z"/><path class="cls-1" d="M600.67,90.63H582.48c-8.64,0-13.81-4.57-13.81-13.8v-17c0-8.44,4.16-13.81,13.81-13.81H600.7l-.07,5.64s-16.93-.06-17.69,0c-5.1.17-7.73,3.32-7.73,8.16l0,17c0,5,2.26,8.16,7.75,8.16l17.8,0Z"/><path class="cls-1" d="M646.32,90.51h-6.54l0-20-23.86,0,0,20-6.57,0V45.91h6.57V64.82h23.86V45.91h6.54Z"/><path class="cls-1" d="M327.51,116.48v73.28c0,20.44-14.59,32.41-39.85,32.41s-37.37-12-38-28.91h26.42c.29,6.13,4.23,9.2,12.26,9.2,8.32,0,12.26-4.67,12.26-11.68V179.1c-4.09,6-10.36,9.78-20.14,9.78-19.56,0-32.7-15.62-32.7-37.22s12.55-36.94,32.11-36.94c10.51,0,17.23,4.38,21.32,11v-9.19Zm-26.42,35.18c0-10.66-4.67-15.91-13.14-15.91s-13.14,5.83-13.14,16.49,4.68,15.62,13.14,15.62S301.09,162.31,301.09,151.66Z"/><path class="cls-1" d="M414.37,161.88H359.19c1.75,8.61,7.59,12.7,15,12.7,6.27,0,10.65-2.19,13.28-6.57h25.11c-4.23,16.49-20.14,25.54-38.39,25.54-24.38,0-40.58-15.62-40.58-39.41s15.91-39.42,40.29-39.42c23.94,0,40.43,15.62,40.43,42.34ZM359.19,146h29.34c-1.75-8.17-7.15-12.26-14.89-12.26C366.49,133.7,360.94,137.21,359.19,146Z"/><path class="cls-1" d="M497,143V191.8H470.14V148.74c0-7-2.63-11.24-10.22-11.24-6,0-11.82,3.5-11.82,12.55V191.8H421.24V116.48h26.27v9.92c5.11-6.57,12.56-11.68,23.51-11.68C485.32,114.72,497,123.63,497,143Z"/><path class="cls-1" d="M558,115.75v24.08h-7c-11.83,0-18.1,5.84-18.1,19.86V191.8H506.05V116.48h26.28v14.89c2.63-10.66,9.34-16.06,20.29-16.06A29.12,29.12,0,0,1,558,115.75Z"/><path class="cls-1" d="M639.77,161.88H584.59c1.75,8.61,7.59,12.7,15,12.7,6.28,0,10.66-2.19,13.28-6.57H638c-4.23,16.49-20.14,25.54-38.39,25.54-24.38,0-40.58-15.62-40.58-39.41s15.91-39.42,40.29-39.42c23.94,0,40.43,15.62,40.43,42.34ZM584.59,146h29.35c-1.76-8.17-7.16-12.26-14.9-12.26C591.89,133.7,586.34,137.21,584.59,146Z"/><path class="cls-1" d="M746.21,154.14c0,23.79-11.82,39.41-32.12,39.41-9.63,0-16.34-3.79-20.87-9.92v36.78H666.36V116.48h26.13v9.34c4.52-6.86,11.39-11.1,21.6-11.1C734.39,114.72,746.21,130.34,746.21,154.14Zm-27-.59c0-12.84-4.67-17.8-13.13-17.8s-13.14,5.54-13.14,18.39,4.67,18.39,13.14,18.39S719.2,166.4,719.2,153.55Z"/><path class="cls-1" d="M804.31,115.75v24.08h-7c-11.83,0-18.1,5.84-18.1,19.86V191.8H752.34V116.48h26.28v14.89c2.63-10.66,9.34-16.06,20.29-16.06A29.12,29.12,0,0,1,804.31,115.75Z"/><path class="cls-1" d="M810.44,116.48H837.3V191.8H810.44Zm.88-28.62h25.26v21H811.32Z"/><path class="cls-1" d="M842,167.86h26c.88,7,4.38,9.2,12.56,9.2,7.88,0,10.65-2.19,10.65-5.7s-2.33-5.54-11.38-6.86L869,162.9c-15.91-2.34-26.13-9.35-26.13-23.51,0-15.76,12.41-24.67,36.21-24.67,27.44,0,35.76,12,36.64,26.13H891c-.15-7-5.11-9-12-9-7.45,0-9.93,2.34-9.93,5.7,0,3.65,2.92,5.11,9.34,6l12.85,1.75c17.66,2.49,26.57,9.93,26.57,23.94,0,16.06-14,25-38,25C855.26,194.14,843.44,187,842,167.86Z"/><path class="cls-1" d="M1043.72,143.77v48h-26.86V148.74c0-7-2.19-11.24-9.48-11.24-6,0-10.81,3.5-10.81,12.55V191.8H969.71V148.74c0-7-2.19-11.24-9.49-11.24-6,0-10.8,3.5-10.8,12.55V191.8H922.56V116.48h26.28v9.92c5-6.57,11.53-11.68,21.16-11.68,10.52,0,18.84,4.38,23.22,13,5.4-6.86,13.72-13,23.94-13C1032.92,114.72,1043.72,124.36,1043.72,143.77Z"/><polygon class="cls-2" points="184.04 136.67 56.84 166.33 166.58 106.42 129 41.34 35.5 203.29 222.51 203.29 184.04 136.67"/></g></svg>